<?xml version="1.0" standalone="no"?>
<!DOCTYPE svg PUBLIC "-//W3C//DTD SVG 20010904//EN"
 "http://www.w3.org/TR/2001/REC-SVG-20010904/DTD/svg10.dtd">
<svg version="1.0" xmlns="http://www.w3.org/2000/svg"
 width="512.000000pt" height="512.000000pt" viewBox="0 0 512.000000 512.000000"
 preserveAspectRatio="xMidYMid meet">

<g transform="translate(0.000000,512.000000) scale(0.100000,-0.100000)"
fill="#000000" stroke="none">
<path d="M3533 4795 c-35 -15 -43 -31 -43 -88 0 -23 39 -458 86 -967 47 -509
136 -1474 198 -2146 63 -671 118 -1230 125 -1241 26 -49 120 -43 140 9 11 29
-390 4374 -407 4404 -17 32 -61 45 -99 29z"/>
<path d="M1565 4780 c-15 -17 -23 -77 -51 -377 -157 -1676 -366 -3948 -367
-3989 -2 -58 16 -89 58 -96 31 -6 80 15 89 38 4 11 41 377 81 814 249 2675
325 3510 325 3548 0 55 -26 82 -78 82 -26 0 -45 -7 -57 -20z"/>
<path d="M1869 4783 c-9 -10 -19 -23 -22 -29 -3 -6 -29 -347 -57 -759 -28
-411 -96 -1392 -150 -2179 -77 -1122 -95 -1436 -86 -1455 17 -37 63 -53 103
-36 24 10 34 22 41 52 5 21 76 1012 157 2202 146 2151 146 2164 127 2190 -24
33 -90 41 -113 14z"/>
<path d="M2501 4774 c-20 -25 -21 -40 -21 -209 0 -169 1 -184 21 -209 16 -20
29 -26 59 -26 30 0 43 6 59 26 20 25 21 40 21 209 0 169 -1 184 -21 209 -16
20 -29 26 -59 26 -30 0 -43 -6 -59 -26z"/>
<path d="M3141 4774 c-11 -15 -21 -36 -21 -48 2 -126 300 -4357 308 -4373 27
-49 121 -43 141 9 5 14 -8 261 -35 653 -24 347 -91 1328 -149 2180 -118 1728
-103 1597 -182 1603 -34 3 -44 -1 -62 -24z"/>
<path d="M2525 3738 c-44 -26 -44 -24 -45 -441 l0 -398 25 -24 c15 -16 36 -25
55 -25 19 0 40 9 55 25 l25 24 0 400 0 399 -31 26 c-33 28 -53 32 -84 14z"/>
<path d="M2505 2245 l-25 -24 0 -396 0 -397 29 -29 c37 -37 65 -37 102 0 l29
29 0 397 0 396 -25 24 c-15 16 -36 25 -55 25 -19 0 -40 -9 -55 -25z"/>
<path d="M2501 764 c-20 -25 -21 -40 -21 -209 0 -169 1 -184 21 -209 29 -37
89 -37 118 0 20 25 21 40 21 209 0 169 -1 184 -21 209 -16 20 -29 26 -59 26
-30 0 -43 -6 -59 -26z"/>
</g>
</svg>
